<svg width="16" height="16" viewBox="0 0 16 16" fill="none" xmlns="http://www.w3.org/2000/svg">
<g clip-path="url(#clip0_36_849)">
<path d="M6.01321 4.18835L5.71218 5.9436C5.68203 6.11951 5.7543 6.29724 5.89871 6.4021C5.98037 6.46143 6.07705 6.4917 6.17422 6.4917C6.24881 6.4917 6.32376 6.47388 6.39236 6.43787L7.96865 5.60913L9.54495 6.43787C9.61355 6.47388 9.68838 6.4917 9.76309 6.4917C9.76345 6.4917 9.76394 6.4917 9.76443 6.4917C10.023 6.49133 10.2324 6.28162 10.2324 6.02295C10.2324 5.98694 10.2284 5.95191 10.2207 5.91821L9.9241 4.18835L11.1994 2.94519C11.3272 2.82068 11.3732 2.6344 11.318 2.46472C11.2628 2.29504 11.1162 2.17139 10.9396 2.14575L9.17727 1.88965L8.38906 0.29248C8.31008 0.132568 8.14712 0.03125 7.96865 0.03125C7.79031 0.03125 7.62735 0.132568 7.54837 0.29248L6.76016 1.88953L4.99771 2.14563C4.82119 2.17139 4.67446 2.29504 4.61941 2.46472C4.56423 2.6344 4.61026 2.82068 4.73794 2.94519L6.01321 4.18835ZM7.13882 2.78198C7.29153 2.75977 7.42349 2.66382 7.49172 2.52551L7.96865 1.5592L8.44558 2.52551C8.51394 2.66382 8.6459 2.75977 8.79861 2.78198L9.86502 2.93689L9.09329 3.68909C8.98281 3.79675 8.9324 3.9519 8.95852 4.10388L9.14065 5.16602L8.18679 4.66455C8.11856 4.62866 8.0436 4.61072 7.96878 4.61072C7.89382 4.61072 7.81887 4.62866 7.75064 4.66455L6.79678 5.16602L6.97891 4.104C7.00503 3.9519 6.95462 3.79675 6.84414 3.68909L6.07241 2.93689L7.13882 2.78198Z" fill="#ED1C24"/>
<path d="M14.2448 10.575H12.2365C11.9531 10.575 11.6859 10.644 11.45 10.7656V9.28638C11.45 8.33582 10.6766 7.5625 9.72608 7.5625H6.21143C5.26086 7.5625 4.48743 8.33582 4.48743 9.28638V9.51038C4.25147 9.38892 3.98425 9.31982 3.70105 9.31982H1.69275C0.742066 9.3197 -0.03125 10.0931 -0.03125 11.0437V15.5625C-0.03125 15.8213 0.178589 16.0311 0.4375 16.0311H15.5C15.7589 16.0311 15.9688 15.8213 15.9688 15.5625V12.299C15.9688 11.3484 15.1954 10.575 14.2448 10.575ZM0.90625 11.0437C0.90625 10.6101 1.25903 10.2572 1.69275 10.2572H3.70105C4.13464 10.2572 4.48743 10.6101 4.48743 11.0437V15.0938H0.90625V11.0437ZM5.42493 11.0437V9.28638C5.42493 8.85278 5.77783 8.5 6.21143 8.5H9.72608C10.1597 8.5 10.5125 8.85278 10.5125 9.28638V15.0938H5.42493V11.0437ZM15.0313 15.0938H11.45V12.299C11.45 11.8652 11.8027 11.5125 12.2365 11.5125H14.2448C14.6785 11.5125 15.0313 11.8652 15.0313 12.299V15.0938Z" fill="#ED1C24"/>
</g>
<defs>
<clipPath id="clip0_36_849">
<rect width="16" height="16" fill="white"/>
</clipPath>
</defs>
</svg>
